solid OpenSCAD_Model
  facet normal -1 0 0
    outer loop
      vertex -21.85 -7.5 0
      vertex -21.85 7.5 20
      vertex -21.85 7.5 0
    endloop
  endfacet
  facet normal -1 -0 0
    outer loop
      vertex -21.85 7.5 20
      vertex -21.85 -7.5 0
      vertex -21.85 -7.5 20
    endloop
  endfacet
  facet normal 0 0 1
    outer loop
      vertex 25.8738 1.645 20
      vertex 27.2744 1.775 20
      vertex 27.072 2.08664 20
    endloop
  endfacet
  facet normal 0 0 1
    outer loop
      vertex 25.8738 1.645 20
      vertex 27.072 2.08664 20
      vertex 26.8382 2.37541 20
    endloop
  endfacet
  facet normal 0 0 1
    outer loop
      vertex 25.8738 1.645 20
      vertex 26.8382 2.37541 20
      vertex 26.5754 2.63816 20
    endloop
  endfacet
  facet normal 0 0 1
    outer loop
      vertex 25.7725 1.74639 20
      vertex 26.5754 2.63816 20
      vertex 26.2866 2.87201 20
    endloop
  endfacet
  facet normal 0 0 1
    outer loop
      vertex 25.5813 1.90119 20
      vertex 26.2866 2.87201 20
      vertex 25.975 3.07439 20
    endloop
  endfacet
  facet normal 0 0 1
    outer loop
      vertex 27.2744 1.775 20
      vertex 25.8738 1.645 20
      vertex 27.3406 1.645 20
    endloop
  endfacet
  facet normal 0 0 1
    outer loop
      vertex 26.5754 2.63816 20
      vertex 25.7725 1.74639 20
      vertex 25.8738 1.645 20
    endloop
  endfacet
  facet normal 0 0 1
    outer loop
      vertex 25.375 2.03516 20
      vertex 25.975 3.07439 20
      vertex 25.6439 3.24309 20
    endloop
  endfacet
  facet normal 0 0 1
    outer loop
      vertex 26.2866 2.87201 20
      vertex 25.5813 1.90119 20
      vertex 25.7725 1.74639 20
    endloop
  endfacet
  facet normal 0 0 1
    outer loop
      vertex 25.975 3.07439 20
      vertex 25.375 2.03516 20
      vertex 25.5813 1.90119 20
    endloop
  endfacet
  facet normal 0 0 1
    outer loop
      vertex 25.1558 2.14683 20
      vertex 25.6439 3.24309 20
      vertex 25.297 3.37625 20
    endloop
  endfacet
  facet normal 0 0 1
    outer loop
      vertex 25.6439 3.24309 20
      vertex 25.1558 2.14683 20
      vertex 25.375 2.03516 20
    endloop
  endfacet
  facet normal 0 0 1
    outer loop
      vertex 24.9262 2.23498 20
      vertex 25.297 3.37625 20
      vertex 24.9381 3.47242 20
    endloop
  endfacet
  facet normal 0 0 1
    outer loop
      vertex 25.297 3.37625 20
      vertex 24.9262 2.23498 20
      vertex 25.1558 2.14683 20
    endloop
  endfacet
  facet normal 0 0 1
    outer loop
      vertex 24.9381 3.47242 20
      vertex 24.6886 2.29865 20
      vertex 24.9262 2.23498 20
    endloop
  endfacet
  facet normal 0 0 1
    outer loop
      vertex 24.5711 3.53055 20
      vertex 24.6886 2.29865 20
      vertex 24.9381 3.47242 20
    endloop
  endfacet
  facet normal 0 0 1
    outer loop
      vertex 24.5711 3.53055 20
      vertex 24.4456 2.33713 20
      vertex 24.6886 2.29865 20
    endloop
  endfacet
  facet normal 0 0 1
    outer loop
      vertex 24.2 3.55 20
      vertex 24.4456 2.33713 20
      vertex 24.5711 3.53055 20
    endloop
  endfacet
  facet normal 0 0 1
    outer loop
      vertex 24.2 3.55 20
      vertex 24.2 2.35 20
      vertex 24.4456 2.33713 20
    endloop
  endfacet
  facet normal 0 0 1
    outer loop
      vertex 24.2 3.55 20
      vertex 23.9544 2.33713 20
      vertex 24.2 2.35 20
    endloop
  endfacet
  facet normal -0 0 1
    outer loop
      vertex 23.8289 3.53055 20
      vertex 23.9544 2.33713 20
      vertex 24.2 3.55 20
    endloop
  endfacet
  facet normal 0 0 1
    outer loop
      vertex 23.8289 3.53055 20
      vertex 23.7114 2.29865 20
      vertex 23.9544 2.33713 20
    endloop
  endfacet
  facet normal -0 0 1
    outer loop
      vertex 23.4619 3.47242 20
      vertex 23.7114 2.29865 20
      vertex 23.8289 3.53055 20
    endloop
  endfacet
  facet normal 0 0 1
    outer loop
      vertex 23.7114 2.29865 20
      vertex 23.4619 3.47242 20
      vertex 23.4738 2.23498 20
    endloop
  endfacet
  facet normal -0 0 1
    outer loop
      vertex 23.103 3.37625 20
      vertex 23.4738 2.23498 20
      vertex 23.4619 3.47242 20
    endloop
  endfacet
  facet normal 0 0 1
    outer loop
      vertex 23.4738 2.23498 20
      vertex 23.103 3.37625 20
      vertex 23.2442 2.14683 20
    endloop
  endfacet
  facet normal -0 0 1
    outer loop
      vertex 22.7561 3.24309 20
      vertex 23.2442 2.14683 20
      vertex 23.103 3.37625 20
    endloop
  endfacet
  facet normal 0 0 1
    outer loop
      vertex 23.2442 2.14683 20
      vertex 22.7561 3.24309 20
      vertex 23.025 2.03516 20
    endloop
  endfacet
  facet normal -0 0 1
    outer loop
      vertex 22.425 3.07439 20
      vertex 23.025 2.03516 20
      vertex 22.7561 3.24309 20
    endloop
  endfacet
  facet normal 0 0 1
    outer loop
      vertex 23.025 2.03516 20
      vertex 22.425 3.07439 20
      vertex 22.8187 1.90119 20
    endloop
  endfacet
  facet normal -0 0 1
    outer loop
      vertex 22.1134 2.87201 20
      vertex 22.8187 1.90119 20
      vertex 22.425 3.07439 20
    endloop
  endfacet
  facet normal -0 0 1
    outer loop
      vertex 21.85 2.65874 20
      vertex 22.8187 1.90119 20
      vertex 22.1134 2.87201 20
    endloop
  endfacet
  facet normal 0 0 1
    outer loop
      vertex 22.8187 1.90119 20
      vertex 21.85 2.65874 20
      vertex 22.6275 1.74639 20
    endloop
  endfacet
  facet normal 0 0 1
    outer loop
      vertex 22.6275 1.74639 20
      vertex 21.85 2.65874 20
      vertex 22.4536 1.57246 20
    endloop
  endfacet
  facet normal 0 0 1
    outer loop
      vertex 22.4536 1.57246 20
      vertex 21.85 2.65874 20
      vertex 22.2988 1.3813 20
    endloop
  endfacet
  facet normal 0 0 1
    outer loop
      vertex 22.2988 1.3813 20
      vertex 21.85 2.65874 20
      vertex 22.1648 1.175 20
    endloop
  endfacet
  facet normal 0 0 1
    outer loop
      vertex 22.1648 1.175 20
      vertex 21.85 2.65874 20
      vertex 22.0532 0.955831 20
    endloop
  endfacet
  facet normal 0 0 1
    outer loop
      vertex 22.0532 0.955831 20
      vertex 21.85 2.65874 20
      vertex 21.965 0.72619 20
    endloop
  endfacet
  facet normal 0 0 1
    outer loop
      vertex 21.965 0.72619 20
      vertex 21.85 2.65874 20
      vertex 21.9014 0.488592 20
    endloop
  endfacet
  facet normal 0 0 1
    outer loop
      vertex 21.8629 0.245642 20
      vertex 21.85 2.65874 20
      vertex 21.85 0 20
    endloop
  endfacet
  facet normal 0 0 1
    outer loop
      vertex 21.9014 0.488592 20
      vertex 21.85 2.65874 20
      vertex 21.8629 0.245642 20
    endloop
  endfacet
  facet normal -0 0 1
    outer loop
      vertex 25.8738 -1.645 20
      vertex 27.2744 -1.775 20
      vertex 27.3406 -1.645 20
    endloop
  endfacet
  facet normal 0 0 1
    outer loop
      vertex 27.2744 -1.775 20
      vertex 25.8738 -1.645 20
      vertex 27.072 -2.08664 20
    endloop
  endfacet
  facet normal 0 0 1
    outer loop
      vertex 27.072 -2.08664 20
      vertex 25.8738 -1.645 20
      vertex 26.8382 -2.37541 20
    endloop
  endfacet
  facet normal 0 0 1
    outer loop
      vertex 26.8382 -2.37541 20
      vertex 25.8738 -1.645 20
      vertex 26.5754 -2.63816 20
    endloop
  endfacet
  facet normal -0 0 1
    outer loop
      vertex 25.7725 -1.74639 20
      vertex 26.5754 -2.63816 20
      vertex 25.8738 -1.645 20
    endloop
  endfacet
  facet normal 0 0 1
    outer loop
      vertex 26.5754 -2.63816 20
      vertex 25.7725 -1.74639 20
      vertex 26.2866 -2.87201 20
    endloop
  endfacet
  facet normal -0 0 1
    outer loop
      vertex 25.5813 -1.90119 20
      vertex 26.2866 -2.87201 20
      vertex 25.7725 -1.74639 20
    endloop
  endfacet
  facet normal 0 0 1
    outer loop
      vertex 26.2866 -2.87201 20
      vertex 25.5813 -1.90119 20
      vertex 25.975 -3.07439 20
    endloop
  endfacet
  facet normal -0 0 1
    outer loop
      vertex 25.375 -2.03516 20
      vertex 25.975 -3.07439 20
      vertex 25.5813 -1.90119 20
    endloop
  endfacet
  facet normal 0 0 1
    outer loop
      vertex 25.975 -3.07439 20
      vertex 25.375 -2.03516 20
      vertex 25.6439 -3.24309 20
    endloop
  endfacet
  facet normal -0 0 1
    outer loop
      vertex 25.1558 -2.14683 20
      vertex 25.6439 -3.24309 20
      vertex 25.375 -2.03516 20
    endloop
  endfacet
  facet normal 0 0 1
    outer loop
      vertex 25.6439 -3.24309 20
      vertex 25.1558 -2.14683 20
      vertex 25.297 -3.37625 20
    endloop
  endfacet
  facet normal -0 0 1
    outer loop
      vertex 24.9262 -2.23498 20
      vertex 25.297 -3.37625 20
      vertex 25.1558 -2.14683 20
    endloop
  endfacet
  facet normal 0 0 1
    outer loop
      vertex 25.297 -3.37625 20
      vertex 24.9262 -2.23498 20
      vertex 24.9381 -3.47242 20
    endloop
  endfacet
  facet normal -0 0 1
    outer loop
      vertex 24.6886 -2.29865 20
      vertex 24.9381 -3.47242 20
      vertex 24.9262 -2.23498 20
    endloop
  endfacet
  facet normal 0 0 1
    outer loop
      vertex 24.6886 -2.29865 20
      vertex 24.5711 -3.53055 20
      vertex 24.9381 -3.47242 20
    endloop
  endfacet
  facet normal -0 0 1
    outer loop
      vertex 24.4456 -2.33713 20
      vertex 24.5711 -3.53055 20
      vertex 24.6886 -2.29865 20
    endloop
  endfacet
  facet normal -0 0 1
    outer loop
      vertex 24.2 -2.35 20
      vertex 24.5711 -3.53055 20
      vertex 24.4456 -2.33713 20
    endloop
  endfacet
  facet normal 0 0 1
    outer loop
      vertex 24.2 -2.35 20
      vertex 24.2 -3.55 20
      vertex 24.5711 -3.53055 20
    endloop
  endfacet
  facet normal 0 0 1
    outer loop
      vertex 23.9544 -2.33713 20
      vertex 24.2 -3.55 20
      vertex 24.2 -2.35 20
    endloop
  endfacet
  facet normal 0 0 1
    outer loop
      vertex 23.9544 -2.33713 20
      vertex 23.8289 -3.53055 20
      vertex 24.2 -3.55 20
    endloop
  endfacet
  facet normal 0 0 1
    outer loop
      vertex 23.7114 -2.29865 20
      vertex 23.8289 -3.53055 20
      vertex 23.9544 -2.33713 20
    endloop
  endfacet
  facet normal 0 0 1
    outer loop
      vertex 23.4619 -3.47242 20
      vertex 23.7114 -2.29865 20
      vertex 23.4738 -2.23498 20
    endloop
  endfacet
  facet normal 0 0 1
    outer loop
      vertex 23.7114 -2.29865 20
      vertex 23.4619 -3.47242 20
      vertex 23.8289 -3.53055 20
    endloop
  endfacet
  facet normal 0 0 1
    outer loop
      vertex 23.103 -3.37625 20
      vertex 23.4738 -2.23498 20
      vertex 23.2442 -2.14683 20
    endloop
  endfacet
  facet normal 0 0 1
    outer loop
      vertex 23.4738 -2.23498 20
      vertex 23.103 -3.37625 20
      vertex 23.4619 -3.47242 20
    endloop
  endfacet
  facet normal 0 0 1
    outer loop
      vertex 22.7561 -3.24309 20
      vertex 23.2442 -2.14683 20
      vertex 23.025 -2.03516 20
    endloop
  endfacet
  facet normal 0 0 1
    outer loop
      vertex 22.425 -3.07439 20
      vertex 23.025 -2.03516 20
      vertex 22.8187 -1.90119 20
    endloop
  endfacet
  facet normal 0 0 1
    outer loop
      vertex 23.2442 -2.14683 20
      vertex 22.7561 -3.24309 20
      vertex 23.103 -3.37625 20
    endloop
  endfacet
  facet normal 0 0 1
    outer loop
      vertex 21.85 -2.65874 20
      vertex 22.8187 -1.90119 20
      vertex 22.6275 -1.74639 20
    endloop
  endfacet
  facet normal 0 0 1
    outer loop
      vertex 21.85 -2.65874 20
      vertex 22.6275 -1.74639 20
      vertex 22.4536 -1.57246 20
    endloop
  endfacet
  facet normal 0 0 1
    outer loop
      vertex 23.025 -2.03516 20
      vertex 22.425 -3.07439 20
      vertex 22.7561 -3.24309 20
    endloop
  endfacet
  facet normal 0 0 1
    outer loop
      vertex 21.85 -2.65874 20
      vertex 22.4536 -1.57246 20
      vertex 22.2988 -1.3813 20
    endloop
  endfacet
  facet normal 0 0 1
    outer loop
      vertex 21.85 -2.65874 20
      vertex 22.2988 -1.3813 20
      vertex 22.1648 -1.175 20
    endloop
  endfacet
  facet normal 0 0 1
    outer loop
      vertex 22.8187 -1.90119 20
      vertex 22.1134 -2.87201 20
      vertex 22.425 -3.07439 20
    endloop
  endfacet
  facet normal 0 0 1
    outer loop
      vertex 21.85 -2.65874 20
      vertex 22.1648 -1.175 20
      vertex 22.0532 -0.955831 20
    endloop
  endfacet
  facet normal 0 0 1
    outer loop
      vertex 21.85 -2.65874 20
      vertex 22.0532 -0.955831 20
      vertex 21.965 -0.72619 20
    endloop
  endfacet
  facet normal 0 0 1
    outer loop
      vertex 21.85 -2.65874 20
      vertex 21.965 -0.72619 20
      vertex 21.9014 -0.488592 20
    endloop
  endfacet
  facet normal 0 0 1
    outer loop
      vertex 21.85 -2.65874 20
      vertex 21.9014 -0.488592 20
      vertex 21.8629 -0.245642 20
    endloop
  endfacet
  facet normal 0 0 1
    outer loop
      vertex 22.8187 -1.90119 20
      vertex 21.85 -2.65874 20
      vertex 22.1134 -2.87201 20
    endloop
  endfacet
  facet normal 0 0 1
    outer loop
      vertex 21.85 0 20
      vertex 21.85 -2.65874 20
      vertex 21.8629 -0.245642 20
    endloop
  endfacet
  facet normal 0 0 1
    outer loop
      vertex -21.85 7.5 20
      vertex 21.85 0 20
      vertex 21.85 2.65874 20
    endloop
  endfacet
  facet normal -0 0 1
    outer loop
      vertex -21.85 7.5 20
      vertex 21.85 2.65874 20
      vertex 21.85 7.5 20
    endloop
  endfacet
  facet normal 0 0 1
    outer loop
      vertex -21.85 -7.5 20
      vertex 21.85 0 20
      vertex -21.85 7.5 20
    endloop
  endfacet
  facet normal 0 0 1
    outer loop
      vertex 21.85 0 20
      vertex -21.85 -7.5 20
      vertex 21.85 -2.65874 20
    endloop
  endfacet
  facet normal 0 0 1
    outer loop
      vertex 21.85 -2.65874 20
      vertex -21.85 -7.5 20
      vertex 21.85 -7.5 20
    endloop
  endfacet
  facet normal 1 0 0
    outer loop
      vertex 21.85 -2.65874 20
      vertex 21.85 -7.5 20
      vertex 21.85 -2.65874 15
    endloop
  endfacet
  facet normal 1 0 0
    outer loop
      vertex 21.85 2.65874 15
      vertex 21.85 7.5 20
      vertex 21.85 2.65874 20
    endloop
  endfacet
  facet normal 1 0 0
    outer loop
      vertex 21.85 7.5 20
      vertex 21.85 2.65874 15
      vertex 21.85 7.5 0
    endloop
  endfacet
  facet normal 1 -0 0
    outer loop
      vertex 21.85 -2.65874 15
      vertex 21.85 7.5 0
      vertex 21.85 2.65874 15
    endloop
  endfacet
  facet normal 1 0 0
    outer loop
      vertex 21.85 -7.5 0
      vertex 21.85 -2.65874 15
      vertex 21.85 -7.5 20
    endloop
  endfacet
  facet normal 1 0 0
    outer loop
      vertex 21.85 -2.65874 15
      vertex 21.85 -7.5 0
      vertex 21.85 7.5 0
    endloop
  endfacet
  facet normal 0 1 0
    outer loop
      vertex 21.85 7.5 20
      vertex 20.65 7.5 18.8
      vertex -21.85 7.5 20
    endloop
  endfacet
  facet normal 0 1 -0
    outer loop
      vertex 21.85 7.5 0
      vertex 20.65 7.5 18.8
      vertex 21.85 7.5 20
    endloop
  endfacet
  facet normal 0 1 0
    outer loop
      vertex 20.65 7.5 18.8
      vertex 21.85 7.5 0
      vertex 20.65 7.5 0
    endloop
  endfacet
  facet normal 0 1 -0
    outer loop
      vertex -20.65 7.5 18.8
      vertex -21.85 7.5 20
      vertex 20.65 7.5 18.8
    endloop
  endfacet
  facet normal 0 1 0
    outer loop
      vertex -21.85 7.5 0
      vertex -20.65 7.5 18.8
      vertex -20.65 7.5 0
    endloop
  endfacet
  facet normal 0 1 0
    outer loop
      vertex -20.65 7.5 18.8
      vertex -21.85 7.5 0
      vertex -21.85 7.5 20
    endloop
  endfacet
  facet normal 0 0 -1
    outer loop
      vertex -21.85 -7.5 0
      vertex -20.65 7.5 0
      vertex -20.65 -7.5 0
    endloop
  endfacet
  facet normal -0 0 -1
    outer loop
      vertex -20.65 7.5 0
      vertex -21.85 -7.5 0
      vertex -21.85 7.5 0
    endloop
  endfacet
  facet normal 0 0 -1
    outer loop
      vertex 20.65 -7.5 0
      vertex 21.85 7.5 0
      vertex 21.85 -7.5 0
    endloop
  endfacet
  facet normal -0 0 -1
    outer loop
      vertex 21.85 7.5 0
      vertex 20.65 -7.5 0
      vertex 20.65 7.5 0
    endloop
  endfacet
  facet normal 0 -1 0
    outer loop
      vertex -21.85 -7.5 20
      vertex -20.65 -7.5 18.8
      vertex 21.85 -7.5 20
    endloop
  endfacet
  facet normal 0 -1 0
    outer loop
      vertex -21.85 -7.5 0
      vertex -20.65 -7.5 18.8
      vertex -21.85 -7.5 20
    endloop
  endfacet
  facet normal 0 -1 -0
    outer loop
      vertex -20.65 -7.5 18.8
      vertex -21.85 -7.5 0
      vertex -20.65 -7.5 0
    endloop
  endfacet
  facet normal 0 -1 0
    outer loop
      vertex 20.65 -7.5 18.8
      vertex 21.85 -7.5 20
      vertex -20.65 -7.5 18.8
    endloop
  endfacet
  facet normal 0 -1 0
    outer loop
      vertex 21.85 -7.5 0
      vertex 20.65 -7.5 18.8
      vertex 20.65 -7.5 0
    endloop
  endfacet
  facet normal 0 -1 0
    outer loop
      vertex 20.65 -7.5 18.8
      vertex 21.85 -7.5 0
      vertex 21.85 -7.5 20
    endloop
  endfacet
  facet normal 1 -0 0
    outer loop
      vertex -20.65 -7.5 18.8
      vertex -20.65 7.5 0
      vertex -20.65 7.5 18.8
    endloop
  endfacet
  facet normal 1 0 0
    outer loop
      vertex -20.65 7.5 0
      vertex -20.65 -7.5 18.8
      vertex -20.65 -7.5 0
    endloop
  endfacet
  facet normal 0 0 -1
    outer loop
      vertex -20.65 -7.5 18.8
      vertex 20.65 7.5 18.8
      vertex 20.65 -7.5 18.8
    endloop
  endfacet
  facet normal -0 0 -1
    outer loop
      vertex 20.65 7.5 18.8
      vertex -20.65 -7.5 18.8
      vertex -20.65 7.5 18.8
    endloop
  endfacet
  facet normal -1 0 0
    outer loop
      vertex 20.65 -7.5 0
      vertex 20.65 7.5 18.8
      vertex 20.65 7.5 0
    endloop
  endfacet
  facet normal -1 -0 0
    outer loop
      vertex 20.65 7.5 18.8
      vertex 20.65 -7.5 0
      vertex 20.65 -7.5 18.8
    endloop
  endfacet
  facet normal 0.629323 0.777144 -0
    outer loop
      vertex 26.5754 2.63816 15
      vertex 26.2866 2.87201 20
      vertex 26.5754 2.63816 20
    endloop
  endfacet
  facet normal 0.629323 0.777144 0
    outer loop
      vertex 26.2866 2.87201 20
      vertex 26.5754 2.63816 15
      vertex 26.2866 2.87201 15
    endloop
  endfacet
  facet normal -0.258819 0.965926 0
    outer loop
      vertex 23.4619 3.47242 15
      vertex 23.103 3.37625 20
      vertex 23.4619 3.47242 20
    endloop
  endfacet
  facet normal -0.258819 0.965926 0
    outer loop
      vertex 23.103 3.37625 20
      vertex 23.4619 3.47242 15
      vertex 23.103 3.37625 15
    endloop
  endfacet
  facet normal -0.453991 -0.891006 0
    outer loop
      vertex 22.425 -3.07439 15
      vertex 22.7561 -3.24309 20
      vertex 22.425 -3.07439 20
    endloop
  endfacet
  facet normal -0.453991 -0.891006 -0
    outer loop
      vertex 22.7561 -3.24309 20
      vertex 22.425 -3.07439 15
      vertex 22.7561 -3.24309 15
    endloop
  endfacet
  facet normal 0.891006 0.453991 0
    outer loop
      vertex 27.3406 1.645 20
      vertex 27.2744 1.775 15
      vertex 27.2744 1.775 20
    endloop
  endfacet
  facet normal 0.891006 0.453991 0
    outer loop
      vertex 27.2744 1.775 15
      vertex 27.3406 1.645 20
      vertex 27.3406 1.645 15
    endloop
  endfacet
  facet normal 0.358368 0.93358 -0
    outer loop
      vertex 25.6439 3.24309 15
      vertex 25.297 3.37625 20
      vertex 25.6439 3.24309 20
    endloop
  endfacet
  facet normal 0.358368 0.93358 0
    outer loop
      vertex 25.297 3.37625 20
      vertex 25.6439 3.24309 15
      vertex 25.297 3.37625 15
    endloop
  endfacet
  facet normal -0.156434 0.987688 0
    outer loop
      vertex 23.8289 3.53055 15
      vertex 23.4619 3.47242 20
      vertex 23.8289 3.53055 20
    endloop
  endfacet
  facet normal -0.156434 0.987688 0
    outer loop
      vertex 23.4619 3.47242 20
      vertex 23.8289 3.53055 15
      vertex 23.4619 3.47242 15
    endloop
  endfacet
  facet normal 0.777145 -0.629322 0
    outer loop
      vertex 26.8382 -2.37541 20
      vertex 27.072 -2.08664 15
      vertex 27.072 -2.08664 20
    endloop
  endfacet
  facet normal 0.777145 -0.629322 0
    outer loop
      vertex 27.072 -2.08664 15
      vertex 26.8382 -2.37541 20
      vertex 26.8382 -2.37541 15
    endloop
  endfacet
  facet normal -0.156434 -0.987688 0
    outer loop
      vertex 23.4619 -3.47242 15
      vertex 23.8289 -3.53055 20
      vertex 23.4619 -3.47242 20
    endloop
  endfacet
  facet normal -0.156434 -0.987688 -0
    outer loop
      vertex 23.8289 -3.53055 20
      vertex 23.4619 -3.47242 15
      vertex 23.8289 -3.53055 15
    endloop
  endfacet
  facet normal 0.777145 0.629322 0
    outer loop
      vertex 27.072 2.08664 20
      vertex 26.8382 2.37541 15
      vertex 26.8382 2.37541 20
    endloop
  endfacet
  facet normal 0.777145 0.629322 0
    outer loop
      vertex 26.8382 2.37541 15
      vertex 27.072 2.08664 20
      vertex 27.072 2.08664 15
    endloop
  endfacet
  facet normal 0.838672 0.544638 0
    outer loop
      vertex 27.2744 1.775 20
      vertex 27.072 2.08664 15
      vertex 27.072 2.08664 20
    endloop
  endfacet
  facet normal 0.838672 0.544638 0
    outer loop
      vertex 27.072 2.08664 15
      vertex 27.2744 1.775 20
      vertex 27.2744 1.775 15
    endloop
  endfacet
  facet normal 0.707107 0.707107 0
    outer loop
      vertex 26.8382 2.37541 20
      vertex 26.5754 2.63816 15
      vertex 26.5754 2.63816 20
    endloop
  endfacet
  facet normal 0.707107 0.707107 0
    outer loop
      vertex 26.5754 2.63816 15
      vertex 26.8382 2.37541 20
      vertex 26.8382 2.37541 15
    endloop
  endfacet
  facet normal 0.544638 0.838672 -0
    outer loop
      vertex 26.2866 2.87201 15
      vertex 25.975 3.07439 20
      vertex 26.2866 2.87201 20
    endloop
  endfacet
  facet normal 0.544638 0.838672 0
    outer loop
      vertex 25.975 3.07439 20
      vertex 26.2866 2.87201 15
      vertex 25.975 3.07439 15
    endloop
  endfacet
  facet normal 0.0523363 0.99863 -0
    outer loop
      vertex 24.5711 3.53055 15
      vertex 24.2 3.55 20
      vertex 24.5711 3.53055 20
    endloop
  endfacet
  facet normal 0.0523363 0.99863 0
    outer loop
      vertex 24.2 3.55 20
      vertex 24.5711 3.53055 15
      vertex 24.2 3.55 15
    endloop
  endfacet
  facet normal 0.453991 0.891006 -0
    outer loop
      vertex 25.975 3.07439 15
      vertex 25.6439 3.24309 20
      vertex 25.975 3.07439 20
    endloop
  endfacet
  facet normal 0.453991 0.891006 0
    outer loop
      vertex 25.6439 3.24309 20
      vertex 25.975 3.07439 15
      vertex 25.6439 3.24309 15
    endloop
  endfacet
  facet normal 0.258818 0.965926 -0
    outer loop
      vertex 25.297 3.37625 15
      vertex 24.9381 3.47242 20
      vertex 25.297 3.37625 20
    endloop
  endfacet
  facet normal 0.258818 0.965926 0
    outer loop
      vertex 24.9381 3.47242 20
      vertex 25.297 3.37625 15
      vertex 24.9381 3.47242 15
    endloop
  endfacet
  facet normal -0.052336 0.99863 0
    outer loop
      vertex 24.2 3.55 15
      vertex 23.8289 3.53055 20
      vertex 24.2 3.55 20
    endloop
  endfacet
  facet normal -0.052336 0.99863 0
    outer loop
      vertex 23.8289 3.53055 20
      vertex 24.2 3.55 15
      vertex 23.8289 3.53055 15
    endloop
  endfacet
  facet normal -0.453991 0.891006 0
    outer loop
      vertex 22.7561 3.24309 15
      vertex 22.425 3.07439 20
      vertex 22.7561 3.24309 20
    endloop
  endfacet
  facet normal -0.453991 0.891006 0
    outer loop
      vertex 22.425 3.07439 20
      vertex 22.7561 3.24309 15
      vertex 22.425 3.07439 15
    endloop
  endfacet
  facet normal -0.544638 0.838672 0
    outer loop
      vertex 22.425 3.07439 15
      vertex 22.1134 2.87201 20
      vertex 22.425 3.07439 20
    endloop
  endfacet
  facet normal -0.544638 0.838672 0
    outer loop
      vertex 22.1134 2.87201 20
      vertex 22.425 3.07439 15
      vertex 22.1134 2.87201 15
    endloop
  endfacet
  facet normal -0.358368 0.93358 0
    outer loop
      vertex 23.103 3.37625 15
      vertex 22.7561 3.24309 20
      vertex 23.103 3.37625 20
    endloop
  endfacet
  facet normal -0.358368 0.93358 0
    outer loop
      vertex 22.7561 3.24309 20
      vertex 23.103 3.37625 15
      vertex 22.7561 3.24309 15
    endloop
  endfacet
  facet normal -0.629319 0.777147 0
    outer loop
      vertex 22.1134 2.87201 15
      vertex 21.85 2.65874 20
      vertex 22.1134 2.87201 20
    endloop
  endfacet
  facet normal -0.629319 0.777147 0
    outer loop
      vertex 21.85 2.65874 20
      vertex 22.1134 2.87201 15
      vertex 21.85 2.65874 15
    endloop
  endfacet
  facet normal 0.0523363 -0.99863 0
    outer loop
      vertex 24.2 -3.55 15
      vertex 24.5711 -3.53055 20
      vertex 24.2 -3.55 20
    endloop
  endfacet
  facet normal 0.0523363 -0.99863 0
    outer loop
      vertex 24.5711 -3.53055 20
      vertex 24.2 -3.55 15
      vertex 24.5711 -3.53055 15
    endloop
  endfacet
  facet normal 0.156434 -0.987688 0
    outer loop
      vertex 24.5711 -3.53055 15
      vertex 24.9381 -3.47242 20
      vertex 24.5711 -3.53055 20
    endloop
  endfacet
  facet normal 0.156434 -0.987688 0
    outer loop
      vertex 24.9381 -3.47242 20
      vertex 24.5711 -3.53055 15
      vertex 24.9381 -3.47242 15
    endloop
  endfacet
  facet normal 0.258818 -0.965926 0
    outer loop
      vertex 24.9381 -3.47242 15
      vertex 25.297 -3.37625 20
      vertex 24.9381 -3.47242 20
    endloop
  endfacet
  facet normal 0.258818 -0.965926 0
    outer loop
      vertex 25.297 -3.37625 20
      vertex 24.9381 -3.47242 15
      vertex 25.297 -3.37625 15
    endloop
  endfacet
  facet normal 0.629323 -0.777144 0
    outer loop
      vertex 26.2866 -2.87201 15
      vertex 26.5754 -2.63816 20
      vertex 26.2866 -2.87201 20
    endloop
  endfacet
  facet normal 0.629323 -0.777144 0
    outer loop
      vertex 26.5754 -2.63816 20
      vertex 26.2866 -2.87201 15
      vertex 26.5754 -2.63816 15
    endloop
  endfacet
  facet normal 0.453991 -0.891006 0
    outer loop
      vertex 25.6439 -3.24309 15
      vertex 25.975 -3.07439 20
      vertex 25.6439 -3.24309 20
    endloop
  endfacet
  facet normal 0.453991 -0.891006 0
    outer loop
      vertex 25.975 -3.07439 20
      vertex 25.6439 -3.24309 15
      vertex 25.975 -3.07439 15
    endloop
  endfacet
  facet normal 0.891006 -0.453991 0
    outer loop
      vertex 27.2744 -1.775 20
      vertex 27.3406 -1.645 15
      vertex 27.3406 -1.645 20
    endloop
  endfacet
  facet normal 0.891006 -0.453991 0
    outer loop
      vertex 27.3406 -1.645 15
      vertex 27.2744 -1.775 20
      vertex 27.2744 -1.775 15
    endloop
  endfacet
  facet normal -0.052336 -0.99863 0
    outer loop
      vertex 23.8289 -3.53055 15
      vertex 24.2 -3.55 20
      vertex 23.8289 -3.53055 20
    endloop
  endfacet
  facet normal -0.052336 -0.99863 -0
    outer loop
      vertex 24.2 -3.55 20
      vertex 23.8289 -3.53055 15
      vertex 24.2 -3.55 15
    endloop
  endfacet
  facet normal -0.358368 -0.93358 0
    outer loop
      vertex 22.7561 -3.24309 15
      vertex 23.103 -3.37625 20
      vertex 22.7561 -3.24309 20
    endloop
  endfacet
  facet normal -0.358368 -0.93358 -0
    outer loop
      vertex 23.103 -3.37625 20
      vertex 22.7561 -3.24309 15
      vertex 23.103 -3.37625 15
    endloop
  endfacet
  facet normal -0.544638 -0.838672 0
    outer loop
      vertex 22.1134 -2.87201 15
      vertex 22.425 -3.07439 20
      vertex 22.1134 -2.87201 20
    endloop
  endfacet
  facet normal -0.544638 -0.838672 -0
    outer loop
      vertex 22.425 -3.07439 20
      vertex 22.1134 -2.87201 15
      vertex 22.425 -3.07439 15
    endloop
  endfacet
  facet normal 0 0 -1
    outer loop
      vertex 25.8738 -1.645 15
      vertex 27.2744 -1.775 15
      vertex 27.072 -2.08664 15
    endloop
  endfacet
  facet normal 0 0 -1
    outer loop
      vertex 25.8738 -1.645 15
      vertex 27.072 -2.08664 15
      vertex 26.8382 -2.37541 15
    endloop
  endfacet
  facet normal 0 0 -1
    outer loop
      vertex 25.8738 -1.645 15
      vertex 26.8382 -2.37541 15
      vertex 26.5754 -2.63816 15
    endloop
  endfacet
  facet normal 0 0 -1
    outer loop
      vertex 25.7725 -1.74639 15
      vertex 26.5754 -2.63816 15
      vertex 26.2866 -2.87201 15
    endloop
  endfacet
  facet normal 0 0 -1
    outer loop
      vertex 25.5813 -1.90119 15
      vertex 26.2866 -2.87201 15
      vertex 25.975 -3.07439 15
    endloop
  endfacet
  facet normal 0 0 -1
    outer loop
      vertex 27.2744 -1.775 15
      vertex 25.8738 -1.645 15
      vertex 27.3406 -1.645 15
    endloop
  endfacet
  facet normal 0 0 -1
    outer loop
      vertex 26.5754 -2.63816 15
      vertex 25.7725 -1.74639 15
      vertex 25.8738 -1.645 15
    endloop
  endfacet
  facet normal 0 0 -1
    outer loop
      vertex 25.375 -2.03516 15
      vertex 25.975 -3.07439 15
      vertex 25.6439 -3.24309 15
    endloop
  endfacet
  facet normal 0 0 -1
    outer loop
      vertex 26.2866 -2.87201 15
      vertex 25.5813 -1.90119 15
      vertex 25.7725 -1.74639 15
    endloop
  endfacet
  facet normal 0 0 -1
    outer loop
      vertex 25.975 -3.07439 15
      vertex 25.375 -2.03516 15
      vertex 25.5813 -1.90119 15
    endloop
  endfacet
  facet normal 0 0 -1
    outer loop
      vertex 25.1558 -2.14683 15
      vertex 25.6439 -3.24309 15
      vertex 25.297 -3.37625 15
    endloop
  endfacet
  facet normal 0 0 -1
    outer loop
      vertex 25.6439 -3.24309 15
      vertex 25.1558 -2.14683 15
      vertex 25.375 -2.03516 15
    endloop
  endfacet
  facet normal 0 0 -1
    outer loop
      vertex 24.9262 -2.23498 15
      vertex 25.297 -3.37625 15
      vertex 24.9381 -3.47242 15
    endloop
  endfacet
  facet normal 0 0 -1
    outer loop
      vertex 25.297 -3.37625 15
      vertex 24.9262 -2.23498 15
      vertex 25.1558 -2.14683 15
    endloop
  endfacet
  facet normal 0 0 -1
    outer loop
      vertex 24.9381 -3.47242 15
      vertex 24.6886 -2.29865 15
      vertex 24.9262 -2.23498 15
    endloop
  endfacet
  facet normal 0 0 -1
    outer loop
      vertex 24.5711 -3.53055 15
      vertex 24.6886 -2.29865 15
      vertex 24.9381 -3.47242 15
    endloop
  endfacet
  facet normal 0 0 -1
    outer loop
      vertex 24.5711 -3.53055 15
      vertex 24.4456 -2.33713 15
      vertex 24.6886 -2.29865 15
    endloop
  endfacet
  facet normal 0 0 -1
    outer loop
      vertex 24.2 -3.55 15
      vertex 24.4456 -2.33713 15
      vertex 24.5711 -3.53055 15
    endloop
  endfacet
  facet normal 0 0 -1
    outer loop
      vertex 24.2 -3.55 15
      vertex 24.2 -2.35 15
      vertex 24.4456 -2.33713 15
    endloop
  endfacet
  facet normal 0 0 -1
    outer loop
      vertex 24.2 -3.55 15
      vertex 23.9544 -2.33713 15
      vertex 24.2 -2.35 15
    endloop
  endfacet
  facet normal 0 0 -1
    outer loop
      vertex 23.8289 -3.53055 15
      vertex 23.9544 -2.33713 15
      vertex 24.2 -3.55 15
    endloop
  endfacet
  facet normal 0 0 -1
    outer loop
      vertex 23.8289 -3.53055 15
      vertex 23.7114 -2.29865 15
      vertex 23.9544 -2.33713 15
    endloop
  endfacet
  facet normal 0 0 -1
    outer loop
      vertex 23.4619 -3.47242 15
      vertex 23.7114 -2.29865 15
      vertex 23.8289 -3.53055 15
    endloop
  endfacet
  facet normal -0 0 -1
    outer loop
      vertex 23.7114 -2.29865 15
      vertex 23.4619 -3.47242 15
      vertex 23.4738 -2.23498 15
    endloop
  endfacet
  facet normal 0 0 -1
    outer loop
      vertex 23.103 -3.37625 15
      vertex 23.4738 -2.23498 15
      vertex 23.4619 -3.47242 15
    endloop
  endfacet
  facet normal -0 0 -1
    outer loop
      vertex 23.4738 -2.23498 15
      vertex 23.103 -3.37625 15
      vertex 23.2442 -2.14683 15
    endloop
  endfacet
  facet normal 0 0 -1
    outer loop
      vertex 22.7561 -3.24309 15
      vertex 23.2442 -2.14683 15
      vertex 23.103 -3.37625 15
    endloop
  endfacet
  facet normal -0 0 -1
    outer loop
      vertex 23.2442 -2.14683 15
      vertex 22.7561 -3.24309 15
      vertex 23.025 -2.03516 15
    endloop
  endfacet
  facet normal 0 0 -1
    outer loop
      vertex 22.425 -3.07439 15
      vertex 23.025 -2.03516 15
      vertex 22.7561 -3.24309 15
    endloop
  endfacet
  facet normal -0 0 -1
    outer loop
      vertex 23.025 -2.03516 15
      vertex 22.425 -3.07439 15
      vertex 22.8187 -1.90119 15
    endloop
  endfacet
  facet normal 0 0 -1
    outer loop
      vertex 22.1134 -2.87201 15
      vertex 22.8187 -1.90119 15
      vertex 22.425 -3.07439 15
    endloop
  endfacet
  facet normal 0 0 -1
    outer loop
      vertex 21.85 -2.65874 15
      vertex 22.8187 -1.90119 15
      vertex 22.1134 -2.87201 15
    endloop
  endfacet
  facet normal -0 0 -1
    outer loop
      vertex 22.8187 -1.90119 15
      vertex 21.85 -2.65874 15
      vertex 22.6275 -1.74639 15
    endloop
  endfacet
  facet normal -0 0 -1
    outer loop
      vertex 22.6275 -1.74639 15
      vertex 21.85 -2.65874 15
      vertex 22.4536 -1.57246 15
    endloop
  endfacet
  facet normal -0 0 -1
    outer loop
      vertex 22.4536 -1.57246 15
      vertex 21.85 -2.65874 15
      vertex 22.2988 -1.3813 15
    endloop
  endfacet
  facet normal -0 0 -1
    outer loop
      vertex 22.2988 -1.3813 15
      vertex 21.85 -2.65874 15
      vertex 22.1648 -1.175 15
    endloop
  endfacet
  facet normal -0 0 -1
    outer loop
      vertex 22.1648 -1.175 15
      vertex 21.85 -2.65874 15
      vertex 22.0532 -0.955831 15
    endloop
  endfacet
  facet normal -0 0 -1
    outer loop
      vertex 22.0532 -0.955831 15
      vertex 21.85 -2.65874 15
      vertex 21.965 -0.72619 15
    endloop
  endfacet
  facet normal -0 0 -1
    outer loop
      vertex 21.965 -0.72619 15
      vertex 21.85 -2.65874 15
      vertex 21.9014 -0.488592 15
    endloop
  endfacet
  facet normal -0 0 -1
    outer loop
      vertex 21.8629 -0.245642 15
      vertex 21.85 -2.65874 15
      vertex 21.85 0 15
    endloop
  endfacet
  facet normal -0 0 -1
    outer loop
      vertex 21.9014 -0.488592 15
      vertex 21.85 -2.65874 15
      vertex 21.8629 -0.245642 15
    endloop
  endfacet
  facet normal 0 0 -1
    outer loop
      vertex 25.8738 1.645 15
      vertex 27.2744 1.775 15
      vertex 27.3406 1.645 15
    endloop
  endfacet
  facet normal -0 0 -1
    outer loop
      vertex 27.2744 1.775 15
      vertex 25.8738 1.645 15
      vertex 27.072 2.08664 15
    endloop
  endfacet
  facet normal -0 0 -1
    outer loop
      vertex 27.072 2.08664 15
      vertex 25.8738 1.645 15
      vertex 26.8382 2.37541 15
    endloop
  endfacet
  facet normal -0 0 -1
    outer loop
      vertex 26.8382 2.37541 15
      vertex 25.8738 1.645 15
      vertex 26.5754 2.63816 15
    endloop
  endfacet
  facet normal 0 0 -1
    outer loop
      vertex 25.7725 1.74639 15
      vertex 26.5754 2.63816 15
      vertex 25.8738 1.645 15
    endloop
  endfacet
  facet normal -0 0 -1
    outer loop
      vertex 26.5754 2.63816 15
      vertex 25.7725 1.74639 15
      vertex 26.2866 2.87201 15
    endloop
  endfacet
  facet normal 0 0 -1
    outer loop
      vertex 25.5813 1.90119 15
      vertex 26.2866 2.87201 15
      vertex 25.7725 1.74639 15
    endloop
  endfacet
  facet normal -0 0 -1
    outer loop
      vertex 26.2866 2.87201 15
      vertex 25.5813 1.90119 15
      vertex 25.975 3.07439 15
    endloop
  endfacet
  facet normal 0 0 -1
    outer loop
      vertex 25.375 2.03516 15
      vertex 25.975 3.07439 15
      vertex 25.5813 1.90119 15
    endloop
  endfacet
  facet normal -0 0 -1
    outer loop
      vertex 25.975 3.07439 15
      vertex 25.375 2.03516 15
      vertex 25.6439 3.24309 15
    endloop
  endfacet
  facet normal 0 0 -1
    outer loop
      vertex 25.1558 2.14683 15
      vertex 25.6439 3.24309 15
      vertex 25.375 2.03516 15
    endloop
  endfacet
  facet normal -0 0 -1
    outer loop
      vertex 25.6439 3.24309 15
      vertex 25.1558 2.14683 15
      vertex 25.297 3.37625 15
    endloop
  endfacet
  facet normal 0 0 -1
    outer loop
      vertex 24.9262 2.23498 15
      vertex 25.297 3.37625 15
      vertex 25.1558 2.14683 15
    endloop
  endfacet
  facet normal -0 0 -1
    outer loop
      vertex 25.297 3.37625 15
      vertex 24.9262 2.23498 15
      vertex 24.9381 3.47242 15
    endloop
  endfacet
  facet normal 0 0 -1
    outer loop
      vertex 24.6886 2.29865 15
      vertex 24.9381 3.47242 15
      vertex 24.9262 2.23498 15
    endloop
  endfacet
  facet normal 0 0 -1
    outer loop
      vertex 24.6886 2.29865 15
      vertex 24.5711 3.53055 15
      vertex 24.9381 3.47242 15
    endloop
  endfacet
  facet normal 0 0 -1
    outer loop
      vertex 24.4456 2.33713 15
      vertex 24.5711 3.53055 15
      vertex 24.6886 2.29865 15
    endloop
  endfacet
  facet normal 0 0 -1
    outer loop
      vertex 24.2 2.35 15
      vertex 24.5711 3.53055 15
      vertex 24.4456 2.33713 15
    endloop
  endfacet
  facet normal 0 0 -1
    outer loop
      vertex 24.2 2.35 15
      vertex 24.2 3.55 15
      vertex 24.5711 3.53055 15
    endloop
  endfacet
  facet normal 0 0 -1
    outer loop
      vertex 23.9544 2.33713 15
      vertex 24.2 3.55 15
      vertex 24.2 2.35 15
    endloop
  endfacet
  facet normal 0 0 -1
    outer loop
      vertex 23.9544 2.33713 15
      vertex 23.8289 3.53055 15
      vertex 24.2 3.55 15
    endloop
  endfacet
  facet normal 0 0 -1
    outer loop
      vertex 23.7114 2.29865 15
      vertex 23.8289 3.53055 15
      vertex 23.9544 2.33713 15
    endloop
  endfacet
  facet normal 0 0 -1
    outer loop
      vertex 23.4619 3.47242 15
      vertex 23.7114 2.29865 15
      vertex 23.4738 2.23498 15
    endloop
  endfacet
  facet normal 0 0 -1
    outer loop
      vertex 23.7114 2.29865 15
      vertex 23.4619 3.47242 15
      vertex 23.8289 3.53055 15
    endloop
  endfacet
  facet normal 0 0 -1
    outer loop
      vertex 23.103 3.37625 15
      vertex 23.4738 2.23498 15
      vertex 23.2442 2.14683 15
    endloop
  endfacet
  facet normal 0 0 -1
    outer loop
      vertex 23.4738 2.23498 15
      vertex 23.103 3.37625 15
      vertex 23.4619 3.47242 15
    endloop
  endfacet
  facet normal 0 0 -1
    outer loop
      vertex 22.7561 3.24309 15
      vertex 23.2442 2.14683 15
      vertex 23.025 2.03516 15
    endloop
  endfacet
  facet normal 0 0 -1
    outer loop
      vertex 22.425 3.07439 15
      vertex 23.025 2.03516 15
      vertex 22.8187 1.90119 15
    endloop
  endfacet
  facet normal 0 0 -1
    outer loop
      vertex 23.2442 2.14683 15
      vertex 22.7561 3.24309 15
      vertex 23.103 3.37625 15
    endloop
  endfacet
  facet normal 0 0 -1
    outer loop
      vertex 21.85 2.65874 15
      vertex 22.8187 1.90119 15
      vertex 22.6275 1.74639 15
    endloop
  endfacet
  facet normal 0 0 -1
    outer loop
      vertex 21.85 2.65874 15
      vertex 22.6275 1.74639 15
      vertex 22.4536 1.57246 15
    endloop
  endfacet
  facet normal 0 0 -1
    outer loop
      vertex 23.025 2.03516 15
      vertex 22.425 3.07439 15
      vertex 22.7561 3.24309 15
    endloop
  endfacet
  facet normal 0 0 -1
    outer loop
      vertex 21.85 2.65874 15
      vertex 22.4536 1.57246 15
      vertex 22.2988 1.3813 15
    endloop
  endfacet
  facet normal 0 0 -1
    outer loop
      vertex 21.85 2.65874 15
      vertex 22.2988 1.3813 15
      vertex 22.1648 1.175 15
    endloop
  endfacet
  facet normal 0 0 -1
    outer loop
      vertex 22.8187 1.90119 15
      vertex 22.1134 2.87201 15
      vertex 22.425 3.07439 15
    endloop
  endfacet
  facet normal 0 0 -1
    outer loop
      vertex 21.85 2.65874 15
      vertex 22.1648 1.175 15
      vertex 22.0532 0.955831 15
    endloop
  endfacet
  facet normal 0 0 -1
    outer loop
      vertex 21.85 2.65874 15
      vertex 22.0532 0.955831 15
      vertex 21.965 0.72619 15
    endloop
  endfacet
  facet normal 0 0 -1
    outer loop
      vertex 21.85 2.65874 15
      vertex 21.965 0.72619 15
      vertex 21.9014 0.488592 15
    endloop
  endfacet
  facet normal 0 0 -1
    outer loop
      vertex 21.85 2.65874 15
      vertex 21.9014 0.488592 15
      vertex 21.8629 0.245642 15
    endloop
  endfacet
  facet normal 0 0 -1
    outer loop
      vertex 22.8187 1.90119 15
      vertex 21.85 2.65874 15
      vertex 22.1134 2.87201 15
    endloop
  endfacet
  facet normal 0 0 -1
    outer loop
      vertex 21.85 0 15
      vertex 21.85 2.65874 15
      vertex 21.8629 0.245642 15
    endloop
  endfacet
  facet normal 0 0 -1
    outer loop
      vertex 21.85 2.65874 15
      vertex 21.85 0 15
      vertex 21.85 -2.65874 15
    endloop
  endfacet
  facet normal 0.156434 0.987688 -0
    outer loop
      vertex 24.9381 3.47242 15
      vertex 24.5711 3.53055 20
      vertex 24.9381 3.47242 20
    endloop
  endfacet
  facet normal 0.156434 0.987688 0
    outer loop
      vertex 24.5711 3.53055 20
      vertex 24.9381 3.47242 15
      vertex 24.5711 3.53055 15
    endloop
  endfacet
  facet normal 0.358368 -0.93358 0
    outer loop
      vertex 25.297 -3.37625 15
      vertex 25.6439 -3.24309 20
      vertex 25.297 -3.37625 20
    endloop
  endfacet
  facet normal 0.358368 -0.93358 0
    outer loop
      vertex 25.6439 -3.24309 20
      vertex 25.297 -3.37625 15
      vertex 25.6439 -3.24309 15
    endloop
  endfacet
  facet normal 0.707107 -0.707107 0
    outer loop
      vertex 26.5754 -2.63816 20
      vertex 26.8382 -2.37541 15
      vertex 26.8382 -2.37541 20
    endloop
  endfacet
  facet normal 0.707107 -0.707107 0
    outer loop
      vertex 26.8382 -2.37541 15
      vertex 26.5754 -2.63816 20
      vertex 26.5754 -2.63816 15
    endloop
  endfacet
  facet normal 0.544638 -0.838672 0
    outer loop
      vertex 25.975 -3.07439 15
      vertex 26.2866 -2.87201 20
      vertex 25.975 -3.07439 20
    endloop
  endfacet
  facet normal 0.544638 -0.838672 0
    outer loop
      vertex 26.2866 -2.87201 20
      vertex 25.975 -3.07439 15
      vertex 26.2866 -2.87201 15
    endloop
  endfacet
  facet normal 0.838672 -0.544638 0
    outer loop
      vertex 27.072 -2.08664 20
      vertex 27.2744 -1.775 15
      vertex 27.2744 -1.775 20
    endloop
  endfacet
  facet normal 0.838672 -0.544638 0
    outer loop
      vertex 27.2744 -1.775 15
      vertex 27.072 -2.08664 20
      vertex 27.072 -2.08664 15
    endloop
  endfacet
  facet normal -0.258819 -0.965926 0
    outer loop
      vertex 23.103 -3.37625 15
      vertex 23.4619 -3.47242 20
      vertex 23.103 -3.37625 20
    endloop
  endfacet
  facet normal -0.258819 -0.965926 -0
    outer loop
      vertex 23.4619 -3.47242 20
      vertex 23.103 -3.37625 15
      vertex 23.4619 -3.47242 15
    endloop
  endfacet
  facet normal -0.629319 -0.777147 0
    outer loop
      vertex 21.85 -2.65874 15
      vertex 22.1134 -2.87201 20
      vertex 21.85 -2.65874 20
    endloop
  endfacet
  facet normal -0.629319 -0.777147 -0
    outer loop
      vertex 22.1134 -2.87201 20
      vertex 21.85 -2.65874 15
      vertex 22.1134 -2.87201 15
    endloop
  endfacet
  facet normal 0.998629 -0.0523403 0
    outer loop
      vertex 21.85 0 20
      vertex 21.8629 0.245642 15
      vertex 21.8629 0.245642 20
    endloop
  endfacet
  facet normal 0.998629 -0.0523403 0
    outer loop
      vertex 21.8629 0.245642 15
      vertex 21.85 0 20
      vertex 21.85 0 15
    endloop
  endfacet
  facet normal -0.0523364 -0.99863 0
    outer loop
      vertex 24.2 2.35 15
      vertex 24.4456 2.33713 20
      vertex 24.2 2.35 20
    endloop
  endfacet
  facet normal -0.0523364 -0.99863 -0
    outer loop
      vertex 24.4456 2.33713 20
      vertex 24.2 2.35 15
      vertex 24.4456 2.33713 15
    endloop
  endfacet
  facet normal -0.70711 -0.707103 0
    outer loop
      vertex 25.8738 1.645 15
      vertex 25.7725 1.74639 20
      vertex 25.7725 1.74639 15
    endloop
  endfacet
  facet normal -0.70711 -0.707103 0
    outer loop
      vertex 25.7725 1.74639 20
      vertex 25.8738 1.645 15
      vertex 25.8738 1.645 20
    endloop
  endfacet
  facet normal 0.629325 -0.777142 0
    outer loop
      vertex 22.6275 1.74639 15
      vertex 22.8187 1.90119 20
      vertex 22.6275 1.74639 20
    endloop
  endfacet
  facet normal 0.629325 -0.777142 0
    outer loop
      vertex 22.8187 1.90119 20
      vertex 22.6275 1.74639 15
      vertex 22.8187 1.90119 15
    endloop
  endfacet
  facet normal 0.358368 -0.93358 0
    outer loop
      vertex 23.2442 2.14683 15
      vertex 23.4738 2.23498 20
      vertex 23.2442 2.14683 20
    endloop
  endfacet
  facet normal 0.358368 -0.93358 0
    outer loop
      vertex 23.4738 2.23498 20
      vertex 23.2442 2.14683 15
      vertex 23.4738 2.23498 15
    endloop
  endfacet
  facet normal 0.777144 0.629323 0
    outer loop
      vertex 22.4536 -1.57246 20
      vertex 22.2988 -1.3813 15
      vertex 22.2988 -1.3813 20
    endloop
  endfacet
  facet normal 0.777144 0.629323 0
    outer loop
      vertex 22.2988 -1.3813 15
      vertex 22.4536 -1.57246 20
      vertex 22.4536 -1.57246 15
    endloop
  endfacet
  facet normal -0.45399 -0.891007 0
    outer loop
      vertex 25.1558 2.14683 15
      vertex 25.375 2.03516 20
      vertex 25.1558 2.14683 20
    endloop
  endfacet
  facet normal -0.45399 -0.891007 -0
    outer loop
      vertex 25.375 2.03516 20
      vertex 25.1558 2.14683 15
      vertex 25.375 2.03516 15
    endloop
  endfacet
  facet normal -0.629321 -0.777145 0
    outer loop
      vertex 25.5813 1.90119 15
      vertex 25.7725 1.74639 20
      vertex 25.5813 1.90119 20
    endloop
  endfacet
  facet normal -0.629321 -0.777145 -0
    outer loop
      vertex 25.7725 1.74639 20
      vertex 25.5813 1.90119 15
      vertex 25.7725 1.74639 15
    endloop
  endfacet
  facet normal 0.83867 -0.544639 0
    outer loop
      vertex 22.1648 1.175 20
      vertex 22.2988 1.3813 15
      vertex 22.2988 1.3813 20
    endloop
  endfacet
  facet normal 0.83867 -0.544639 0
    outer loop
      vertex 22.2988 1.3813 15
      vertex 22.1648 1.175 20
      vertex 22.1648 1.175 15
    endloop
  endfacet
  facet normal 0.777144 -0.629323 0
    outer loop
      vertex 22.2988 1.3813 20
      vertex 22.4536 1.57246 15
      vertex 22.4536 1.57246 20
    endloop
  endfacet
  facet normal 0.777144 -0.629323 0
    outer loop
      vertex 22.4536 1.57246 15
      vertex 22.2988 1.3813 20
      vertex 22.2988 1.3813 15
    endloop
  endfacet
  facet normal 0.544635 -0.838673 0
    outer loop
      vertex 22.8187 1.90119 15
      vertex 23.025 2.03516 20
      vertex 22.8187 1.90119 20
    endloop
  endfacet
  facet normal 0.544635 -0.838673 0
    outer loop
      vertex 23.025 2.03516 20
      vertex 22.8187 1.90119 15
      vertex 23.025 2.03516 15
    endloop
  endfacet
  facet normal -0.258818 0.965926 0
    outer loop
      vertex 24.9262 -2.23498 15
      vertex 24.6886 -2.29865 20
      vertex 24.9262 -2.23498 20
    endloop
  endfacet
  facet normal -0.258818 0.965926 0
    outer loop
      vertex 24.6886 -2.29865 20
      vertex 24.9262 -2.23498 15
      vertex 24.6886 -2.29865 15
    endloop
  endfacet
  facet normal -0.70711 0.707103 0
    outer loop
      vertex 25.7725 -1.74639 15
      vertex 25.8738 -1.645 20
      vertex 25.8738 -1.645 15
    endloop
  endfacet
  facet normal -0.70711 0.707103 0
    outer loop
      vertex 25.8738 -1.645 20
      vertex 25.7725 -1.74639 15
      vertex 25.7725 -1.74639 20
    endloop
  endfacet
  facet normal 0.358368 0.93358 -0
    outer loop
      vertex 23.4738 -2.23498 15
      vertex 23.2442 -2.14683 20
      vertex 23.4738 -2.23498 20
    endloop
  endfacet
  facet normal 0.358368 0.93358 0
    outer loop
      vertex 23.2442 -2.14683 20
      vertex 23.4738 -2.23498 15
      vertex 23.2442 -2.14683 15
    endloop
  endfacet
  facet normal 0.544635 0.838673 -0
    outer loop
      vertex 23.025 -2.03516 15
      vertex 22.8187 -1.90119 20
      vertex 23.025 -2.03516 20
    endloop
  endfacet
  facet normal 0.544635 0.838673 0
    outer loop
      vertex 22.8187 -1.90119 20
      vertex 23.025 -2.03516 15
      vertex 22.8187 -1.90119 15
    endloop
  endfacet
  facet normal -0.358368 -0.93358 0
    outer loop
      vertex 24.9262 2.23498 15
      vertex 25.1558 2.14683 20
      vertex 24.9262 2.23498 20
    endloop
  endfacet
  facet normal -0.358368 -0.93358 -0
    outer loop
      vertex 25.1558 2.14683 20
      vertex 24.9262 2.23498 15
      vertex 25.1558 2.14683 15
    endloop
  endfacet
  facet normal -0.258818 -0.965926 0
    outer loop
      vertex 24.6886 2.29865 15
      vertex 24.9262 2.23498 20
      vertex 24.6886 2.29865 20
    endloop
  endfacet
  facet normal -0.258818 -0.965926 -0
    outer loop
      vertex 24.9262 2.23498 20
      vertex 24.6886 2.29865 15
      vertex 24.9262 2.23498 15
    endloop
  endfacet
  facet normal 0.891007 -0.453989 0
    outer loop
      vertex 22.0532 0.955831 20
      vertex 22.1648 1.175 15
      vertex 22.1648 1.175 20
    endloop
  endfacet
  facet normal 0.891007 -0.453989 0
    outer loop
      vertex 22.1648 1.175 15
      vertex 22.0532 0.955831 20
      vertex 22.0532 0.955831 15
    endloop
  endfacet
  facet normal 0.965926 -0.258817 0
    outer loop
      vertex 21.9014 0.488592 20
      vertex 21.965 0.72619 15
      vertex 21.965 0.72619 20
    endloop
  endfacet
  facet normal 0.965926 -0.258817 0
    outer loop
      vertex 21.965 0.72619 15
      vertex 21.9014 0.488592 20
      vertex 21.9014 0.488592 15
    endloop
  endfacet
  facet normal 0.453993 -0.891005 0
    outer loop
      vertex 23.025 2.03516 15
      vertex 23.2442 2.14683 20
      vertex 23.025 2.03516 20
    endloop
  endfacet
  facet normal 0.453993 -0.891005 0
    outer loop
      vertex 23.2442 2.14683 20
      vertex 23.025 2.03516 15
      vertex 23.2442 2.14683 15
    endloop
  endfacet
  facet normal 0.0523364 -0.99863 0
    outer loop
      vertex 23.9544 2.33713 15
      vertex 24.2 2.35 20
      vertex 23.9544 2.33713 20
    endloop
  endfacet
  facet normal 0.0523364 -0.99863 0
    outer loop
      vertex 24.2 2.35 20
      vertex 23.9544 2.33713 15
      vertex 24.2 2.35 15
    endloop
  endfacet
  facet normal 0.258816 -0.965927 0
    outer loop
      vertex 23.4738 2.23498 15
      vertex 23.7114 2.29865 20
      vertex 23.4738 2.23498 20
    endloop
  endfacet
  facet normal 0.258816 -0.965927 0
    outer loop
      vertex 23.7114 2.29865 20
      vertex 23.4738 2.23498 15
      vertex 23.7114 2.29865 15
    endloop
  endfacet
  facet normal 0.156435 -0.987688 0
    outer loop
      vertex 23.7114 2.29865 15
      vertex 23.9544 2.33713 20
      vertex 23.7114 2.29865 20
    endloop
  endfacet
  facet normal 0.156435 -0.987688 0
    outer loop
      vertex 23.9544 2.33713 20
      vertex 23.7114 2.29865 15
      vertex 23.9544 2.33713 15
    endloop
  endfacet
  facet normal -0.0523364 0.99863 0
    outer loop
      vertex 24.4456 -2.33713 15
      vertex 24.2 -2.35 20
      vertex 24.4456 -2.33713 20
    endloop
  endfacet
  facet normal -0.0523364 0.99863 0
    outer loop
      vertex 24.2 -2.35 20
      vertex 24.4456 -2.33713 15
      vertex 24.2 -2.35 15
    endloop
  endfacet
  facet normal -0.156435 0.987688 0
    outer loop
      vertex 24.6886 -2.29865 15
      vertex 24.4456 -2.33713 20
      vertex 24.6886 -2.29865 20
    endloop
  endfacet
  facet normal -0.156435 0.987688 0
    outer loop
      vertex 24.4456 -2.33713 20
      vertex 24.6886 -2.29865 15
      vertex 24.4456 -2.33713 15
    endloop
  endfacet
  facet normal -0.45399 0.891007 0
    outer loop
      vertex 25.375 -2.03516 15
      vertex 25.1558 -2.14683 20
      vertex 25.375 -2.03516 20
    endloop
  endfacet
  facet normal -0.45399 0.891007 0
    outer loop
      vertex 25.1558 -2.14683 20
      vertex 25.375 -2.03516 15
      vertex 25.1558 -2.14683 15
    endloop
  endfacet
  facet normal -0.629321 0.777145 0
    outer loop
      vertex 25.7725 -1.74639 15
      vertex 25.5813 -1.90119 20
      vertex 25.7725 -1.74639 20
    endloop
  endfacet
  facet normal -0.629321 0.777145 0
    outer loop
      vertex 25.5813 -1.90119 20
      vertex 25.7725 -1.74639 15
      vertex 25.5813 -1.90119 15
    endloop
  endfacet
  facet normal -0.544638 0.838671 0
    outer loop
      vertex 25.5813 -1.90119 15
      vertex 25.375 -2.03516 20
      vertex 25.5813 -1.90119 20
    endloop
  endfacet
  facet normal -0.544638 0.838671 0
    outer loop
      vertex 25.375 -2.03516 20
      vertex 25.5813 -1.90119 15
      vertex 25.375 -2.03516 15
    endloop
  endfacet
  facet normal 0.156435 0.987688 -0
    outer loop
      vertex 23.9544 -2.33713 15
      vertex 23.7114 -2.29865 20
      vertex 23.9544 -2.33713 20
    endloop
  endfacet
  facet normal 0.156435 0.987688 0
    outer loop
      vertex 23.7114 -2.29865 20
      vertex 23.9544 -2.33713 15
      vertex 23.7114 -2.29865 15
    endloop
  endfacet
  facet normal 0.707107 0.707107 0
    outer loop
      vertex 22.6275 -1.74639 20
      vertex 22.4536 -1.57246 15
      vertex 22.4536 -1.57246 20
    endloop
  endfacet
  facet normal 0.707107 0.707107 0
    outer loop
      vertex 22.4536 -1.57246 15
      vertex 22.6275 -1.74639 20
      vertex 22.6275 -1.74639 15
    endloop
  endfacet
  facet normal 0.0523364 0.99863 -0
    outer loop
      vertex 24.2 -2.35 15
      vertex 23.9544 -2.33713 20
      vertex 24.2 -2.35 20
    endloop
  endfacet
  facet normal 0.0523364 0.99863 0
    outer loop
      vertex 23.9544 -2.33713 20
      vertex 24.2 -2.35 15
      vertex 23.9544 -2.33713 15
    endloop
  endfacet
  facet normal 0.629325 0.777142 -0
    outer loop
      vertex 22.8187 -1.90119 15
      vertex 22.6275 -1.74639 20
      vertex 22.8187 -1.90119 20
    endloop
  endfacet
  facet normal 0.629325 0.777142 0
    outer loop
      vertex 22.6275 -1.74639 20
      vertex 22.8187 -1.90119 15
      vertex 22.6275 -1.74639 15
    endloop
  endfacet
  facet normal 0.891007 0.453989 0
    outer loop
      vertex 22.1648 -1.175 20
      vertex 22.0532 -0.955831 15
      vertex 22.0532 -0.955831 20
    endloop
  endfacet
  facet normal 0.891007 0.453989 0
    outer loop
      vertex 22.0532 -0.955831 15
      vertex 22.1648 -1.175 20
      vertex 22.1648 -1.175 15
    endloop
  endfacet
  facet normal 0.965926 0.258817 0
    outer loop
      vertex 21.965 -0.72619 20
      vertex 21.9014 -0.488592 15
      vertex 21.9014 -0.488592 20
    endloop
  endfacet
  facet normal 0.965926 0.258817 0
    outer loop
      vertex 21.9014 -0.488592 15
      vertex 21.965 -0.72619 20
      vertex 21.965 -0.72619 15
    endloop
  endfacet
  facet normal 0.998629 0.0523403 0
    outer loop
      vertex 21.8629 -0.245642 20
      vertex 21.85 0 15
      vertex 21.85 0 20
    endloop
  endfacet
  facet normal 0.998629 0.0523403 0
    outer loop
      vertex 21.85 0 15
      vertex 21.8629 -0.245642 20
      vertex 21.8629 -0.245642 15
    endloop
  endfacet
  facet normal 0.933579 0.358372 0
    outer loop
      vertex 22.0532 -0.955831 20
      vertex 21.965 -0.72619 15
      vertex 21.965 -0.72619 20
    endloop
  endfacet
  facet normal 0.933579 0.358372 0
    outer loop
      vertex 21.965 -0.72619 15
      vertex 22.0532 -0.955831 20
      vertex 22.0532 -0.955831 15
    endloop
  endfacet
  facet normal -0.156435 -0.987688 0
    outer loop
      vertex 24.4456 2.33713 15
      vertex 24.6886 2.29865 20
      vertex 24.4456 2.33713 20
    endloop
  endfacet
  facet normal -0.156435 -0.987688 -0
    outer loop
      vertex 24.6886 2.29865 20
      vertex 24.4456 2.33713 15
      vertex 24.6886 2.29865 15
    endloop
  endfacet
  facet normal -0.544638 -0.838671 0
    outer loop
      vertex 25.375 2.03516 15
      vertex 25.5813 1.90119 20
      vertex 25.375 2.03516 20
    endloop
  endfacet
  facet normal -0.544638 -0.838671 -0
    outer loop
      vertex 25.5813 1.90119 20
      vertex 25.375 2.03516 15
      vertex 25.5813 1.90119 15
    endloop
  endfacet
  facet normal 0.707107 -0.707107 0
    outer loop
      vertex 22.4536 1.57246 20
      vertex 22.6275 1.74639 15
      vertex 22.6275 1.74639 20
    endloop
  endfacet
  facet normal 0.707107 -0.707107 0
    outer loop
      vertex 22.6275 1.74639 15
      vertex 22.4536 1.57246 20
      vertex 22.4536 1.57246 15
    endloop
  endfacet
  facet normal 0.987689 -0.156432 0
    outer loop
      vertex 21.8629 0.245642 20
      vertex 21.9014 0.488592 15
      vertex 21.9014 0.488592 20
    endloop
  endfacet
  facet normal 0.987689 -0.156432 0
    outer loop
      vertex 21.9014 0.488592 15
      vertex 21.8629 0.245642 20
      vertex 21.8629 0.245642 15
    endloop
  endfacet
  facet normal 0.933579 -0.358372 0
    outer loop
      vertex 21.965 0.72619 20
      vertex 22.0532 0.955831 15
      vertex 22.0532 0.955831 20
    endloop
  endfacet
  facet normal 0.933579 -0.358372 0
    outer loop
      vertex 22.0532 0.955831 15
      vertex 21.965 0.72619 20
      vertex 21.965 0.72619 15
    endloop
  endfacet
  facet normal -0.358368 0.93358 0
    outer loop
      vertex 25.1558 -2.14683 15
      vertex 24.9262 -2.23498 20
      vertex 25.1558 -2.14683 20
    endloop
  endfacet
  facet normal -0.358368 0.93358 0
    outer loop
      vertex 24.9262 -2.23498 20
      vertex 25.1558 -2.14683 15
      vertex 24.9262 -2.23498 15
    endloop
  endfacet
  facet normal 0.258816 0.965927 -0
    outer loop
      vertex 23.7114 -2.29865 15
      vertex 23.4738 -2.23498 20
      vertex 23.7114 -2.29865 20
    endloop
  endfacet
  facet normal 0.258816 0.965927 0
    outer loop
      vertex 23.4738 -2.23498 20
      vertex 23.7114 -2.29865 15
      vertex 23.4738 -2.23498 15
    endloop
  endfacet
  facet normal 0.453993 0.891005 -0
    outer loop
      vertex 23.2442 -2.14683 15
      vertex 23.025 -2.03516 20
      vertex 23.2442 -2.14683 20
    endloop
  endfacet
  facet normal 0.453993 0.891005 0
    outer loop
      vertex 23.025 -2.03516 20
      vertex 23.2442 -2.14683 15
      vertex 23.025 -2.03516 15
    endloop
  endfacet
  facet normal 0.83867 0.544639 0
    outer loop
      vertex 22.2988 -1.3813 20
      vertex 22.1648 -1.175 15
      vertex 22.1648 -1.175 20
    endloop
  endfacet
  facet normal 0.83867 0.544639 0
    outer loop
      vertex 22.1648 -1.175 15
      vertex 22.2988 -1.3813 20
      vertex 22.2988 -1.3813 15
    endloop
  endfacet
  facet normal 0.987689 0.156432 0
    outer loop
      vertex 21.9014 -0.488592 20
      vertex 21.8629 -0.245642 15
      vertex 21.8629 -0.245642 20
    endloop
  endfacet
  facet normal 0.987689 0.156432 0
    outer loop
      vertex 21.8629 -0.245642 15
      vertex 21.9014 -0.488592 20
      vertex 21.9014 -0.488592 15
    endloop
  endfacet
  facet normal 0 1 -0
    outer loop
      vertex 27.3406 -1.645 15
      vertex 25.8738 -1.645 20
      vertex 27.3406 -1.645 20
    endloop
  endfacet
  facet normal 0 1 0
    outer loop
      vertex 25.8738 -1.645 20
      vertex 27.3406 -1.645 15
      vertex 25.8738 -1.645 15
    endloop
  endfacet
  facet normal 0 -1 0
    outer loop
      vertex 25.8738 1.645 15
      vertex 27.3406 1.645 20
      vertex 25.8738 1.645 20
    endloop
  endfacet
  facet normal 0 -1 -0
    outer loop
      vertex 27.3406 1.645 20
      vertex 25.8738 1.645 15
      vertex 27.3406 1.645 15
    endloop
  endfacet
endsolid OpenSCAD_Model
